<svg width="22" height="32" viewBox="0 0 22 32" fill="none" xmlns="http://www.w3.org/2000/svg">
<g clip-path="url(#clip0_3828_339)">
<path d="M5.33376 31.3682C8.27776 31.3682 10.6675 29.0256 10.6675 26.1397V20.9113H5.33376C2.38976 20.9113 0 23.2539 0 26.1397C0 29.0256 2.38976 31.3682 5.33376 31.3682Z" fill="#0ACF83"/>
<path d="M0 15.6841C0 12.7982 2.38976 10.4557 5.33376 10.4557H10.6675V20.9112H5.33376C2.38976 20.9125 0 18.5699 0 15.6841Z" fill="#A259FF"/>
<path d="M0 5.22845C0 2.34258 2.38976 0 5.33376 0H10.6675V10.4556H5.33376C2.38976 10.4556 0 8.11433 0 5.22845Z" fill="#F24E1E"/>
<path d="M10.6663 0H16C18.944 0 21.3338 2.34258 21.3338 5.22845C21.3338 8.11433 18.944 10.4556 16 10.4556H10.6663V0Z" fill="#FF7262"/>
<path d="M21.3338 15.6841C21.3338 18.57 18.944 20.9126 16 20.9126C13.056 20.9126 10.6663 18.57 10.6663 15.6841C10.6663 12.7982 13.056 10.4557 16 10.4557C18.944 10.4557 21.3338 12.7982 21.3338 15.6841Z" fill="#1ABCFE"/>
</g>
<defs>
<clipPath id="clip0_3828_339">
<rect width="21.3338" height="31.3682" fill="white"/>
</clipPath>
</defs>
</svg>
